<?xml version="1.0" encoding="utf-8"?>
<!-- Generator: Adobe Illustrator 25.2.1, SVG Export Plug-In . SVG Version: 6.00 Build 0)  -->
<svg version="1.1" id="Layer_1" xmlns="http://www.w3.org/2000/svg" xmlns:xlink="http://www.w3.org/1999/xlink" x="0px" y="0px"
	 viewBox="0 0 555.8 52.9" style="enable-background:new 0 0 555.8 52.9;" xml:space="preserve">
<style type="text/css">
	.st0{fill:#FFFFFF;}
</style>
<path class="st0" d="M196.9,52.9H179v-0.6c0,0,0-22.8,0-34.4h-17.8V53h-17.8V0h53.5V52.9z"/>
<path class="st0" d="M35.7,17.5V0h17.7v52.9H35.9V36.1v-0.7H18v17.5H0V0h17.8v17.5H35.7z"/>
<path class="st0" d="M71.6,17.4V0h53.6c0.1,5.6,0,11.4,0.1,17.4H71.6z"/>
<path class="st0" d="M71.7,35.4h53.5v17.5H71.7V35.4z"/>
<path class="st0" d="M502.1,17.4V0h53.6c0.1,5.6,0,11.4,0,17.4H502.1z"/>
<path class="st0" d="M502.1,35.4h53.5v17.5h-53.5L502.1,35.4z"/>
<path class="st0" d="M502.1,19.8h53.5v13.3h-53.5L502.1,19.8z"/>
<path class="st0" d="M286.7,17.4V0h53.6c0.1,5.6,0,11.4,0,17.4H286.7z"/>
<path class="st0" d="M286.9,35.4h53.5v17.5h-53.5V35.4z"/>
<path class="st0" d="M430.4,35.4h53.5v17.5h-53.5V35.4z"/>
<rect x="232.7" y="0.3" class="st0" width="18.2" height="52.6"/>
<rect x="430.4" class="st0" width="18.2" height="52.9"/>
<rect x="502.1" class="st0" width="18.2" height="33.1"/>
<rect x="537.4" y="19.8" class="st0" width="18.2" height="33.1"/>
<rect x="286.7" class="st0" width="18.2" height="52.9"/>
<rect x="322.2" class="st0" width="18.2" height="52.9"/>
<path class="st0" d="M358.6,17.4V0h53.6c0.1,5.6,0,11.4,0,17.4H358.6z"/>
<path class="st0" d="M358.7,35.4h53.5v17.5h-53.5V35.4z"/>
<rect x="358.6" class="st0" width="18.2" height="52.9"/>
<rect x="394" class="st0" width="18.2" height="52.9"/>
<rect x="215.1" y="0.2" class="st0" width="53.5" height="18.2"/>
</svg>
