<?xml version="1.0" encoding="utf-8"?>
<!-- Generator: Adobe Illustrator 25.2.1, SVG Export Plug-In . SVG Version: 6.00 Build 0)  -->
<svg version="1.1" id="Layer_1" xmlns="http://www.w3.org/2000/svg" xmlns:xlink="http://www.w3.org/1999/xlink" x="0px" y="0px"
	 viewBox="0 0 555.8 52.9" style="enable-background:new 0 0 555.8 52.9;" xml:space="preserve">
<path d="M196.9,52.9H179v-0.6c0,0,0-22.8,0-34.4h-17.8v35.1h-17.8V0h53.5V52.9z"/>
<path d="M35.7,17.5V0h17.7v52.9H35.9V36.1v-0.7H18v17.5H0V0h17.8v17.5H35.7z"/>
<path d="M71.6,17.4V0h53.6c0.1,5.6,0,11.4,0.1,17.4H71.6z"/>
<path d="M71.7,35.4h53.5v17.5H71.7L71.7,35.4z"/>
<path d="M502.1,17.4V0h53.6c0.1,5.6,0,11.4,0,17.4H502.1z"/>
<path d="M502.1,35.4h53.5v17.5h-53.5L502.1,35.4z"/>
<path d="M502.1,19.8h53.5v13.3h-53.5L502.1,19.8z"/>
<path d="M286.7,17.4V0h53.6c0.1,5.6,0,11.4,0,17.4H286.7z"/>
<path d="M286.9,35.4h53.5v17.5h-53.5L286.9,35.4z"/>
<path d="M430.4,35.4h53.5v17.5h-53.5L430.4,35.4z"/>
<rect x="232.7" y="0.3" width="18.2" height="52.6"/>
<rect x="430.4" width="18.2" height="52.9"/>
<rect x="502.1" width="18.2" height="33.1"/>
<rect x="537.4" y="19.8" width="18.2" height="33.1"/>
<rect x="286.7" width="18.2" height="52.9"/>
<rect x="322.2" width="18.2" height="52.9"/>
<path d="M358.6,17.4V0h53.6c0.1,5.6,0,11.4,0,17.4H358.6z"/>
<path d="M358.7,35.4h53.5v17.5h-53.5L358.7,35.4z"/>
<rect x="358.6" width="18.2" height="52.9"/>
<rect x="394" width="18.2" height="52.9"/>
<rect x="232.7" y="-17.5" transform="matrix(6.123234e-17 -1 1 6.123234e-17 232.555 251.055)" width="18.2" height="53.5"/>
</svg>
